<svg width="242" height="242" viewBox="0 0 242 242" fill="none" xmlns="http://www.w3.org/2000/svg">
<g clip-path="url(#clip0_15013_19142)">
<path d="M42.108 121.992C-1.45201 147.136 -1.45201 187.933 42.108 213.086C85.668 238.239 156.332 238.254 199.892 213.086C243.452 187.918 243.452 147.136 199.892 121.992C156.332 96.8485 85.668 96.8389 42.108 121.992Z" fill="#FAFAFA"/>
<path d="M246.632 85.6445C245.974 85.8962 245.461 86.4286 244.841 86.7625C243.912 87.2465 242.774 87.2998 241.85 87.8176C241.257 88.1728 240.783 88.697 240.49 89.3231C240.197 89.9491 240.097 90.6485 240.204 91.3315C240.328 92.0112 240.628 92.6468 241.072 93.1756C241.517 93.7044 242.092 94.1081 242.741 94.3468C243.641 94.6808 244.599 94.8308 245.504 95.1551C246.322 95.46 247.009 95.9924 247.9 96.157C248.727 96.3311 249.589 96.1932 250.32 95.7698C250.761 95.5144 251.11 95.1266 251.317 94.6614C251.685 93.8967 252.096 92.7254 251.869 91.8736C251.641 91.0217 251.085 90.5087 250.678 89.8262C250.32 89.0737 250.038 88.2873 249.836 87.4788C249.342 86.1382 248.123 85.0879 246.632 85.6445Z" fill="#EBEBEB"/>
<path d="M242.963 85.8867C243.176 85.7587 243.379 85.6129 243.568 85.4511C243.824 85.2517 244.016 84.9823 244.122 84.6755C244.228 84.3688 244.242 84.0379 244.163 83.7232C244.056 83.1428 243.852 82.5848 243.558 82.0728C243.361 81.6743 243.101 81.3099 242.789 80.9935C242.685 80.8907 242.559 80.8122 242.421 80.7637C242.283 80.7151 242.136 80.6977 241.99 80.7127C241.788 80.7677 241.602 80.8677 241.444 81.0052C241.286 81.1427 241.162 81.3141 241.08 81.5065C240.763 82.0704 240.54 82.6816 240.417 83.3167C240.303 83.8327 240.313 84.3685 240.446 84.88C240.517 85.1346 240.644 85.3699 240.818 85.5686C240.993 85.7672 241.21 85.9239 241.453 86.0271C241.909 86.1791 242.406 86.1514 242.842 85.9496L242.963 85.8867Z" fill="#EBEBEB"/>
<path d="M100.342 204.437C91.4801 209.252 77.1102 209.252 68.2627 204.437C59.4151 199.621 59.4006 191.814 68.2627 187.013C77.1247 182.211 91.4947 182.197 100.342 187.013C109.19 191.828 109.199 199.621 100.342 204.437Z" fill="#E6E6E6"/>
<path d="M147.498 189.534C132.334 197.762 107.742 197.762 92.5787 189.534C77.415 181.306 77.4101 167.924 92.5787 159.681C107.747 151.439 132.334 151.453 147.498 159.681C162.662 167.909 162.667 181.292 147.498 189.534Z" fill="#E6E6E6"/>
<path d="M133.256 154.88C130.836 179.08 138.793 185.217 141.053 185.919C143.313 186.621 146.343 186.839 148.076 184.104C149.809 181.369 144.276 179.806 144.276 179.806C142.442 173.417 144.543 163.592 146.788 159.914C150.036 154.59 151.628 145.728 149.208 138.831C146.788 131.934 133.614 142.78 133.256 154.88Z" fill="#A7A5A6"/>
<path d="M143.865 177.991C143.971 178.604 144.108 179.212 144.276 179.811C143.472 179.608 142.633 179.596 141.824 179.775C141.014 179.954 140.258 180.319 139.615 180.842C139.615 180.842 138.715 178.228 143.865 177.991Z" fill="#041B17"/>
<path d="M142.611 182.555C142.654 182.545 142.699 182.545 142.742 182.555C143.143 182.568 143.537 182.658 143.904 182.821C144.463 183.133 144.894 183.634 145.118 184.235C145.328 184.79 145.383 185.392 145.278 185.977C145.278 186.059 145.244 186.146 145.225 186.229C144.931 186.303 144.632 186.352 144.329 186.374C144.329 186.301 144.373 186.234 144.392 186.156C144.492 185.673 144.462 185.172 144.305 184.704C143.967 183.876 143.374 183.178 142.611 182.71C142.593 182.699 142.578 182.684 142.568 182.666C142.561 182.656 142.557 182.643 142.557 182.63C142.557 182.617 142.561 182.605 142.568 182.594C142.577 182.576 142.592 182.562 142.611 182.555Z" fill="#041B17"/>
<path d="M147.035 185.3C147.064 184.951 147.049 184.599 146.991 184.254C146.845 183.375 146.419 182.567 145.776 181.95C145.718 181.892 145.651 181.829 145.665 181.742C145.728 181.5 146.744 182.197 146.851 182.294C147.263 182.691 147.56 183.193 147.708 183.746C147.773 183.973 147.815 184.207 147.833 184.443C147.603 184.76 147.335 185.047 147.035 185.3Z" fill="#041B17"/>
<path d="M91.5105 164.56C86.7141 163.307 82.7598 160.451 79.3234 156.966C78.5974 156.231 77.8714 155.476 77.2277 154.682C70.0887 146.101 69.7886 133.192 76.7437 124.466C79.5751 120.918 83.2486 118.125 87.1545 115.817C90.0585 114.113 92.9044 113.077 95.1937 110.59C97.2604 108.349 97.1588 105.614 96.4812 103.654C98.3335 104.524 99.9827 105.774 101.322 107.321C102.662 108.868 103.662 110.679 104.259 112.637C105.648 117.298 104.433 122.264 101.534 126.078C97.938 130.811 92.7495 134.122 89.4341 138.986C86.4043 143.434 85.6105 149.3 88.0354 154.203C89.0444 156.164 90.4984 157.861 92.2809 159.16C94.0634 160.458 96.1251 161.321 98.301 161.681C98.8118 161.703 99.3055 161.871 99.724 162.165C100.392 162.779 100.131 163.97 99.4287 164.541C98.6693 165.046 97.7635 165.284 96.8539 165.219C95.0514 165.238 93.2544 165.016 91.5105 164.56Z" fill="#A7A5A6"/>
<path d="M104.273 112.647C105.662 117.308 104.448 122.273 101.548 126.087C101.035 126.765 100.489 127.409 99.9174 128.023C100.584 126.692 100.994 125.247 101.127 123.764C101.045 124.703 96.3939 128.168 96.1083 127.399C96.0693 127.238 96.0829 127.068 96.147 126.915C96.7182 125.105 97.599 123.527 97.8265 121.63C95.2662 122.936 93.1027 124.984 90.3971 125.947C90.2229 126.01 89.9857 126.049 89.8841 125.894C89.8365 125.806 89.8244 125.704 89.8502 125.608C89.9645 125.033 90.1686 124.479 90.4552 123.967C91.3853 122.136 92.4651 120.384 93.6835 118.73C91.9151 119.566 90.22 120.549 88.616 121.668C87.8997 122.152 87.0866 122.723 86.2299 122.549C86.2709 120.927 86.9368 119.384 88.0884 118.242C84.3383 119.622 80.7643 121.44 77.4404 123.658C80.2388 120.539 83.5242 117.894 87.1688 115.826C90.0728 114.123 92.9187 113.087 95.2081 110.599C97.2747 108.358 97.1731 105.624 96.4955 103.664C98.3478 104.534 99.997 105.783 101.337 107.331C102.676 108.878 103.677 110.689 104.273 112.647Z" fill="#F5F5F5"/>
<path d="M110.469 177.851C114.592 179.787 121.906 179.163 124.776 173.79C127.646 168.418 127.786 155.51 120.26 153.036C112.734 150.563 103.785 169.884 110.469 177.851Z" fill="#455A64"/>
<path d="M108.388 173.205L111.422 161.894C110.914 160.758 110.228 159.711 109.39 158.791C109.559 158.201 109.738 157.615 109.927 157.044C111.463 158.239 112.735 159.738 113.663 161.448C117.051 167.774 114.951 176.085 114.951 176.085C114.951 176.085 117.438 178.108 122.046 173.403C124.04 171.365 125.381 168.563 126.257 166.051C126.155 169.318 125.637 172.174 124.776 173.795C121.906 179.168 114.612 179.806 110.469 177.856C109.409 176.497 108.695 174.901 108.388 173.205Z" fill="#A7A5A6"/>
<path d="M144.29 120.898C141.386 127.19 152.078 135.418 149.343 147.678C147.301 156.835 136.856 162.401 134.078 165.697C131.3 168.994 129.78 178.611 131.808 184.946C131.808 184.946 137.379 186.335 135.733 189.123C134.088 191.911 131.048 191.78 128.769 191.151C126.489 190.522 117.37 184.186 117.753 159.996C117.753 159.996 112.884 156.831 111.422 161.893C112.621 164.528 113.218 167.396 113.169 170.291C113.029 174.347 110.469 177.851 110.469 177.851C112.165 177.786 113.864 177.914 115.531 178.233C117.685 178.717 118.193 180.653 117.685 181.902C117.177 183.15 114.781 184.438 112.361 183.93C109.941 183.422 98.4024 181.166 92.7348 174.56C87.0672 167.953 84.8117 156.894 88.2675 150.447C92.7977 141.996 96.8198 139.165 111.921 131.905C118.43 128.778 121.267 123.565 121.518 118.082L144.29 120.898Z" fill="#455A64"/>
<path d="M149.426 140.394C149.025 139.937 148.545 139.556 148.008 139.271C148.738 141.121 148.783 143.17 148.134 145.05C147.861 145.746 147.538 146.42 147.166 147.068C147.088 146.425 146.925 145.795 146.682 145.195C146.919 146.057 146.469 147.673 146.222 148.346C144.872 151.675 142.801 154.664 140.158 157.097C141.126 155.045 140.859 152.504 139.49 150.945L139.199 153.133C137.679 152.402 136.915 150.926 136.063 149.571C135.55 148.757 134.422 145.752 135.424 144.91C134.74 145.49 134.311 146.316 134.229 147.209C134.2 147.591 134.083 148.123 133.701 148.085C133.564 148.059 133.439 147.987 133.348 147.881C129.413 144.222 127.617 137.069 131.896 129.973C132.864 128.396 144.567 128.037 145.119 128.478C147.161 130.046 147.461 130.666 148.119 131.866C148.995 133.473 149.571 135.026 149.712 137.984C149.71 138.795 149.615 139.604 149.426 140.394Z" fill="#FAFAFA"/>
<path d="M144.291 120.898L121.543 118.082C121.44 120.266 120.894 122.407 119.936 124.374C121.77 126.59 125.604 128.308 127.617 128.933C131.877 130.299 136.39 130.688 140.821 130.07C141.29 129.998 141.754 129.896 142.21 129.765C143.249 129.458 144.245 129.022 145.177 128.468C143.962 125.627 143.265 123.134 144.291 120.898Z" fill="#BA68C8"/>
<path d="M103.156 153.801C106.927 154.585 110.284 156.713 112.603 159.788C112.062 160.396 111.659 161.114 111.422 161.893C109.516 157.358 103.156 153.801 103.156 153.801Z" fill="#A7A5A6"/>
<path d="M121.02 181.757C118.378 174.501 116.889 166.876 116.606 159.159C116.901 151.492 119.312 150.447 119.312 150.447C119.312 150.447 117.898 153.472 117.753 159.996C117.753 159.996 117.816 167.861 121.02 181.757Z" fill="#A7A5A6"/>
<path d="M131.339 183.136C131.47 183.747 131.631 184.351 131.823 184.946C131.013 184.767 130.173 184.779 129.369 184.981C128.564 185.184 127.819 185.571 127.191 186.113C127.191 186.113 126.199 183.528 131.339 183.136Z" fill="#A7A5A6"/>
<path d="M107.207 179.908C108.468 179.55 109.599 178.836 110.464 177.851C111.466 177.818 112.47 177.842 113.47 177.924C111.262 180.629 107.207 179.908 107.207 179.908Z" fill="#A7A5A6"/>
<path d="M130.226 187.734C130.267 187.725 130.31 187.725 130.352 187.734C130.754 187.731 131.152 187.81 131.523 187.967C132.093 188.258 132.539 188.744 132.781 189.336C133.008 189.886 133.082 190.486 132.994 191.074L132.951 191.33C132.657 191.411 132.358 191.467 132.055 191.5C132.055 191.427 132.099 191.359 132.113 191.282C132.199 190.795 132.154 190.294 131.983 189.83C131.618 189.014 131.003 188.336 130.226 187.894L130.187 187.855C130.18 187.844 130.176 187.83 130.176 187.817C130.176 187.803 130.18 187.789 130.187 187.778C130.194 187.759 130.208 187.743 130.226 187.734Z" fill="#041B17"/>
<path d="M134.732 190.343C134.747 189.994 134.721 189.645 134.654 189.302C134.478 188.427 134.027 187.632 133.367 187.032C133.309 186.979 133.241 186.916 133.255 186.829C133.309 186.582 134.344 187.255 134.456 187.347C134.88 187.732 135.192 188.226 135.356 188.775C135.426 189.002 135.475 189.235 135.501 189.472C135.281 189.792 135.022 190.084 134.732 190.343Z" fill="#041B17"/>
<path d="M112.816 181.123C112.851 181.094 112.893 181.074 112.937 181.064C113.322 180.953 113.725 180.919 114.123 180.963C114.75 181.088 115.312 181.431 115.711 181.931C116.022 182.322 116.238 182.782 116.34 183.272C116.088 183.418 115.824 183.545 115.551 183.649C115.458 183.285 115.293 182.943 115.067 182.642C114.493 181.953 113.712 181.468 112.841 181.258C112.823 181.254 112.806 181.246 112.792 181.234C112.787 181.223 112.784 181.21 112.784 181.198C112.784 181.185 112.787 181.173 112.792 181.161C112.797 181.147 112.805 181.133 112.816 181.123Z" fill="#041B17"/>
<path d="M117.37 182.425C117.29 182.1 117.171 181.787 117.017 181.49C116.606 180.701 115.953 180.063 115.154 179.671C115.081 179.632 114.999 179.588 114.984 179.501C114.984 179.254 116.156 179.608 116.281 179.666C116.797 179.92 117.234 180.309 117.545 180.793C117.657 180.962 117.755 181.14 117.835 181.326C117.809 181.523 117.758 181.717 117.685 181.902C117.608 182.091 117.502 182.268 117.37 182.425Z" fill="#041B17"/>
<path d="M134.378 154.275C134.378 154.275 135.066 162.62 132.897 167.619C133.205 166.925 133.602 166.274 134.078 165.683C134.735 164.958 135.453 164.289 136.223 163.684C136.148 160.466 135.525 157.284 134.378 154.275Z" fill="#A7A5A6"/>
<path d="M119.374 106.413C117.288 102.749 117.859 94.1867 120.952 92.454C123.856 90.8132 130.598 99.4236 130.598 99.4236C130.598 99.4236 125.071 105.512 119.374 106.413Z" fill="#A7A5A6"/>
<path d="M122.903 104.21C126.775 101.95 130.598 99.4234 130.598 99.4234C130.598 99.4234 124.181 91.2389 121.785 92.6087C120.275 93.2524 118.736 98.0537 122.903 104.21Z" fill="#FFA8A7"/>
<path d="M128.387 99.5593C127.729 99.2381 127.177 98.7339 126.799 98.1073C126.304 97.4095 126.046 96.5715 126.063 95.7163C124.611 96.7085 124.016 99.1043 124.016 99.1043C121.911 98.7703 122.046 96.6843 122.046 96.6843C120.972 97.8411 121.01 100.755 122.854 102.27C123.849 102.399 124.859 102.23 125.758 101.786C127.419 100.987 128.275 100.14 128.387 99.5593Z" fill="#F28F8F"/>
<path d="M123.972 102.782C122.588 101.814 121.722 99.7817 122.307 98.3733C122.307 98.3733 123.275 99.5784 124.374 99.622C124.374 99.622 124.921 95.6386 127.128 95.0288C127.128 95.0288 126.644 97.6521 128.58 99.0799C129.209 102.782 123.972 102.782 123.972 102.782Z" fill="#455A64"/>
<path d="M135.927 97.6426C137.863 94.424 143.429 91.2538 146.793 93.6061C148.69 94.9322 144.997 104.346 144.997 104.346C144.997 104.346 138.667 101.795 135.927 97.6426Z" fill="#A7A5A6"/>
<path d="M138.623 100.271C141.73 102.4 144.997 104.346 144.997 104.346C144.997 104.346 148.69 94.9321 146.793 93.6059C145.501 92.9961 141.624 94.3271 138.623 100.271Z" fill="#FFA8A7"/>
<path d="M144.615 102.26C144.817 101.859 145.083 101.494 145.404 101.18C145.612 100.585 145.84 99.8882 146.057 99.1573C145.113 98.6902 144.076 98.442 143.023 98.4313C142.955 97.3956 143.889 96.355 143.889 96.355C142.64 95.9968 140.569 97.2165 140.133 99.3316C140.44 100.137 140.906 100.873 141.503 101.495C142.19 101.858 142.815 102.168 143.328 102.41C143.763 102.457 144.203 102.405 144.615 102.26Z" fill="#F28F8F"/>
<path d="M140.666 100.058C141.082 98.6056 142.476 97.2504 143.729 97.3327C143.729 97.3327 143.018 98.5039 143.245 99.4671C143.245 99.4671 146.517 98.7556 147.543 100.459C147.543 100.459 145.36 100.822 144.717 102.913C141.967 104.544 140.666 100.058 140.666 100.058Z" fill="#455A64"/>
<path d="M134.625 97.4053C138.241 97.8133 141.641 99.3355 144.354 101.761C146.865 103.998 148.959 106.663 150.539 109.631C151.342 110.919 151.977 112.305 152.427 113.755C152.873 115.488 152.838 117.311 152.325 119.026C152.147 118.308 151.851 117.624 151.449 117.002C151.532 118.038 151.332 119.078 150.868 120.008C150.837 119.559 150.714 119.12 150.505 118.721C150.32 119.059 150.11 119.382 149.876 119.689C149.6 120.095 149.315 120.487 149.015 120.874C148.392 121.665 147.708 122.405 146.967 123.086C145.512 124.479 143.754 125.518 141.832 126.121C141.433 126.234 141.027 126.323 140.617 126.387C136.755 126.924 132.821 126.585 129.108 125.395C127.348 124.851 125.643 124.143 124.016 123.28C123.338 122.917 121.015 121.262 120.923 120.129C120.689 120.231 120.487 120.395 120.339 120.603C120.191 120.811 120.102 121.055 120.081 121.31C119.306 120.673 118.746 119.813 118.477 118.847C118.208 117.88 118.242 116.855 118.576 115.909C117.732 116.422 117.058 117.173 116.64 118.067C115.754 116.988 115.609 115.483 115.711 114.094C115.885 111.732 117.042 109.771 118.29 107.826C121.795 102.366 127.927 97.6957 134.625 97.4053Z" fill="#455A64"/>
<path d="M150.505 118.73C150.149 119.352 149.751 119.948 149.315 120.516C148.899 121.107 148.445 121.67 147.955 122.201C146.98 123.275 145.863 124.211 144.634 124.984C143.399 125.763 142.02 126.286 140.578 126.523C139.138 126.746 137.679 126.834 136.222 126.784C133.318 126.673 130.449 126.11 127.719 125.114C126.35 124.628 125.023 124.032 123.75 123.333C123.129 122.944 122.544 122.5 122.003 122.007C121.73 121.758 121.478 121.488 121.248 121.199C120.997 120.899 120.83 120.538 120.764 120.153L120.976 120.284C120.769 120.375 120.59 120.52 120.458 120.704C120.326 120.888 120.246 121.104 120.226 121.329V121.62L120.004 121.441C119.205 120.785 118.628 119.897 118.355 118.901C118.081 117.904 118.122 116.847 118.474 115.875L118.658 116.03C117.818 116.519 117.144 117.249 116.722 118.125L116.65 118.28L116.538 118.145C115.972 117.387 115.646 116.476 115.604 115.531C115.538 114.603 115.617 113.671 115.836 112.767C116.282 110.962 117.288 109.379 118.256 107.835C117.288 109.389 116.32 111.006 115.943 112.796C115.75 113.689 115.691 114.606 115.769 115.517C115.817 116.421 116.138 117.29 116.688 118.009H116.504C116.933 117.089 117.625 116.318 118.494 115.792L118.808 115.599L118.677 115.947C118.357 116.864 118.324 117.857 118.583 118.793C118.843 119.729 119.382 120.563 120.129 121.184L119.887 121.291C119.909 121.008 120.007 120.736 120.172 120.505C120.337 120.274 120.561 120.092 120.822 119.979L121.006 119.902L121.035 120.11C121.1 120.434 121.248 120.736 121.465 120.986C121.686 121.262 121.928 121.519 122.191 121.755C122.717 122.233 123.286 122.661 123.89 123.033C125.15 123.713 126.457 124.3 127.801 124.79C130.509 125.801 133.359 126.382 136.247 126.513C137.679 126.567 139.114 126.498 140.535 126.305C141.239 126.19 141.933 126.013 142.606 125.777C143.278 125.525 143.926 125.212 144.542 124.843C145.768 124.093 146.891 123.187 147.882 122.147C148.387 121.634 148.854 121.086 149.281 120.507C149.727 119.942 150.136 119.348 150.505 118.73Z" fill="#041B17"/>
<path d="M135.278 115.192C139.339 112.855 137.214 102.763 137.214 102.763C139.334 107.168 140.118 112.404 144.32 114.132C147.969 115.633 149.924 116.857 149.034 120.855C147.136 123.624 144.194 126.242 140.719 126.663C137.713 127.05 133.991 126.866 129.543 125.516C127.641 120.197 130.138 118.164 135.278 115.192Z" fill="#FAFAFA"/>
<path d="M130.618 111.379C130.563 111.72 130.611 112.071 130.756 112.385C130.901 112.699 131.136 112.963 131.431 113.144C131.726 113.325 132.068 113.414 132.414 113.4C132.76 113.386 133.094 113.269 133.373 113.065C133.653 112.861 133.865 112.579 133.984 112.254C134.103 111.929 134.122 111.576 134.04 111.239C133.958 110.903 133.778 110.599 133.523 110.365C133.268 110.132 132.949 109.979 132.607 109.927C132.151 109.858 131.686 109.972 131.314 110.244C130.942 110.516 130.691 110.924 130.618 111.379Z" fill="white"/>
<path d="M130.318 111.238C130.263 111.58 130.311 111.93 130.456 112.244C130.601 112.559 130.836 112.823 131.131 113.004C131.426 113.184 131.768 113.273 132.114 113.259C132.46 113.245 132.794 113.129 133.073 112.925C133.353 112.721 133.565 112.438 133.684 112.113C133.803 111.788 133.823 111.435 133.741 111.099C133.658 110.763 133.478 110.458 133.223 110.225C132.968 109.991 132.649 109.838 132.307 109.786C131.851 109.716 131.386 109.83 131.013 110.102C130.64 110.374 130.39 110.783 130.318 111.238Z" fill="#041B17"/>
<path d="M132.041 111.025C132.041 111.129 132.01 111.23 131.952 111.316C131.895 111.402 131.813 111.469 131.718 111.508C131.622 111.548 131.517 111.558 131.416 111.538C131.314 111.518 131.221 111.468 131.148 111.395C131.075 111.322 131.025 111.229 131.005 111.127C130.985 111.026 130.995 110.921 131.035 110.825C131.074 110.73 131.141 110.648 131.227 110.591C131.313 110.533 131.414 110.502 131.518 110.502C131.586 110.502 131.654 110.516 131.718 110.542C131.781 110.569 131.839 110.607 131.887 110.656C131.936 110.704 131.974 110.762 132.001 110.825C132.027 110.889 132.041 110.957 132.041 111.025Z" fill="#FAFAFA"/>
<path d="M142.761 110.323C142.713 110.638 142.76 110.96 142.895 111.249C143.03 111.537 143.247 111.779 143.52 111.944C143.792 112.109 144.108 112.19 144.426 112.176C144.744 112.161 145.051 112.053 145.308 111.865C145.565 111.676 145.76 111.416 145.869 111.116C145.978 110.817 145.996 110.492 145.92 110.182C145.844 109.873 145.678 109.593 145.443 109.377C145.209 109.162 144.915 109.021 144.6 108.973C144.391 108.94 144.177 108.949 143.971 108.999C143.764 109.049 143.57 109.139 143.399 109.265C143.228 109.39 143.084 109.548 142.974 109.73C142.865 109.912 142.792 110.113 142.761 110.323Z" fill="white"/>
<path d="M142.485 110.193C142.437 110.508 142.484 110.83 142.619 111.119C142.754 111.408 142.972 111.65 143.245 111.815C143.517 111.98 143.833 112.06 144.152 112.046C144.47 112.032 144.777 111.923 145.034 111.734C145.291 111.545 145.486 111.284 145.594 110.984C145.703 110.684 145.72 110.359 145.643 110.049C145.567 109.74 145.4 109.46 145.165 109.245C144.929 109.03 144.635 108.89 144.32 108.842C143.897 108.778 143.467 108.885 143.123 109.138C142.779 109.391 142.55 109.771 142.485 110.193Z" fill="#041B17"/>
<path d="M144.078 109.994C144.078 110.09 144.049 110.184 143.996 110.263C143.943 110.343 143.868 110.405 143.779 110.441C143.691 110.478 143.593 110.488 143.499 110.469C143.406 110.45 143.319 110.404 143.252 110.336C143.184 110.269 143.138 110.183 143.119 110.089C143.1 109.995 143.11 109.897 143.147 109.809C143.183 109.721 143.245 109.645 143.325 109.592C143.405 109.539 143.498 109.51 143.594 109.51C143.722 109.51 143.845 109.561 143.936 109.652C144.027 109.743 144.078 109.866 144.078 109.994Z" fill="#FAFAFA"/>
<path d="M128.914 117.782H128.938C128.999 117.738 129.041 117.672 129.056 117.599C129.07 117.525 129.056 117.448 129.016 117.385C128.164 115.957 126.572 114.326 123.827 114.655C123.791 114.66 123.757 114.673 123.726 114.692C123.694 114.71 123.667 114.735 123.646 114.764C123.624 114.793 123.609 114.827 123.6 114.862C123.591 114.897 123.589 114.934 123.595 114.97C123.602 115.044 123.638 115.112 123.695 115.16C123.752 115.208 123.826 115.232 123.9 115.226C126.359 114.931 127.772 116.402 128.561 117.69C128.598 117.746 128.654 117.787 128.72 117.804C128.785 117.821 128.854 117.813 128.914 117.782Z" fill="#041B17"/>
<path d="M128.145 118.464C128.171 118.448 128.195 118.429 128.217 118.406C128.267 118.35 128.295 118.278 128.295 118.203C128.295 118.128 128.267 118.056 128.217 118C127.706 117.553 127.105 117.22 126.455 117.023C125.805 116.826 125.12 116.77 124.447 116.857C124.379 116.879 124.321 116.925 124.285 116.986C124.248 117.048 124.236 117.12 124.25 117.19C124.263 117.26 124.302 117.323 124.359 117.366C124.416 117.409 124.487 117.43 124.558 117.424C125.143 117.347 125.738 117.393 126.304 117.56C126.87 117.727 127.395 118.01 127.845 118.392C127.88 118.434 127.929 118.464 127.983 118.477C128.037 118.49 128.093 118.486 128.145 118.464Z" fill="#041B17"/>
<path d="M128.251 119.65C128.301 119.62 128.34 119.574 128.362 119.519C128.393 119.45 128.396 119.372 128.371 119.301C128.345 119.23 128.294 119.171 128.227 119.137C127.408 118.791 126.518 118.648 125.633 118.719C124.747 118.791 123.892 119.075 123.14 119.548C123.076 119.59 123.032 119.654 123.014 119.728C122.997 119.802 123.009 119.88 123.048 119.945C123.083 120.008 123.141 120.055 123.21 120.074C123.279 120.094 123.353 120.086 123.416 120.052C124.093 119.622 124.863 119.362 125.662 119.294C126.461 119.226 127.264 119.351 128.004 119.66C128.043 119.679 128.086 119.689 128.129 119.687C128.172 119.685 128.214 119.673 128.251 119.65Z" fill="#041B17"/>
<path d="M149.233 114.781H149.208C149.14 114.75 149.086 114.695 149.056 114.626C149.026 114.557 149.024 114.479 149.049 114.408C149.605 112.84 150.844 110.928 153.598 110.706C153.635 110.703 153.672 110.708 153.707 110.72C153.742 110.732 153.774 110.751 153.801 110.776C153.828 110.801 153.85 110.831 153.865 110.865C153.88 110.899 153.888 110.935 153.889 110.972C153.897 111.046 153.875 111.12 153.829 111.178C153.783 111.236 153.716 111.273 153.642 111.282C151.173 111.48 150.055 113.218 149.557 114.616C149.534 114.68 149.487 114.732 149.427 114.763C149.367 114.793 149.297 114.8 149.233 114.781Z" fill="#041B17"/>
<path d="M150.123 115.299C150.094 115.291 150.066 115.278 150.041 115.26C149.98 115.215 149.939 115.148 149.926 115.074C149.912 114.999 149.927 114.922 149.968 114.858C150.381 114.319 150.904 113.873 151.502 113.551C152.101 113.229 152.761 113.038 153.439 112.99C153.512 112.993 153.582 113.024 153.632 113.078C153.683 113.131 153.711 113.202 153.71 113.276C153.711 113.312 153.706 113.349 153.694 113.384C153.681 113.418 153.662 113.45 153.637 113.477C153.613 113.504 153.583 113.526 153.549 113.541C153.516 113.556 153.48 113.565 153.443 113.566C152.854 113.61 152.28 113.777 151.759 114.056C151.238 114.335 150.781 114.721 150.418 115.188C150.388 115.236 150.343 115.273 150.289 115.293C150.236 115.313 150.178 115.315 150.123 115.299Z" fill="#041B17"/>
<path d="M150.249 116.48C150.193 116.46 150.145 116.423 150.113 116.373C150.071 116.311 150.054 116.234 150.066 116.16C150.078 116.086 150.117 116.018 150.176 115.971C150.91 115.472 151.755 115.156 152.637 115.053C153.519 114.949 154.413 115.06 155.243 115.376C155.312 115.405 155.368 115.459 155.398 115.528C155.429 115.596 155.432 115.673 155.408 115.744C155.387 115.813 155.339 115.87 155.276 115.904C155.212 115.937 155.138 115.944 155.069 115.923C154.321 115.635 153.515 115.533 152.718 115.624C151.922 115.715 151.159 115.997 150.495 116.446C150.46 116.471 150.419 116.488 150.376 116.494C150.333 116.5 150.289 116.495 150.249 116.48Z" fill="#041B17"/>
<path d="M144.518 119.485C144.484 119.405 144.42 119.342 144.339 119.309C144.258 119.277 144.168 119.277 144.088 119.311C143.78 119.467 143.437 119.543 143.092 119.532C142.747 119.521 142.41 119.424 142.113 119.248C141.464 118.804 141.013 118.126 140.854 117.356C140.854 117.264 140.83 117.177 140.816 117.085C140.803 117 140.758 116.924 140.69 116.871C140.622 116.819 140.536 116.796 140.451 116.806C140.366 116.816 140.288 116.859 140.235 116.925C140.181 116.992 140.155 117.077 140.162 117.162C140.169 117.265 140.182 117.366 140.201 117.467C140.294 118.031 140.209 118.609 139.958 119.123C139.708 119.636 139.304 120.059 138.802 120.332C137.771 120.889 136.469 120.816 135.772 120.173C135.742 120.139 135.704 120.113 135.662 120.094C135.621 120.076 135.576 120.067 135.53 120.067C135.485 120.067 135.44 120.076 135.398 120.094C135.357 120.113 135.319 120.139 135.288 120.173C135.256 120.204 135.229 120.241 135.212 120.283C135.194 120.325 135.185 120.369 135.185 120.415C135.185 120.46 135.194 120.505 135.212 120.546C135.229 120.588 135.256 120.626 135.288 120.657C135.847 121.132 136.564 121.382 137.297 121.359C137.918 121.359 138.53 121.206 139.078 120.913C139.487 120.703 139.847 120.408 140.132 120.047C140.418 119.687 140.623 119.269 140.733 118.822C140.992 119.221 141.334 119.559 141.735 119.815C142.122 120.045 142.56 120.176 143.009 120.195C143.459 120.213 143.906 120.119 144.31 119.921C144.353 119.908 144.393 119.885 144.428 119.856C144.462 119.826 144.49 119.79 144.509 119.749C144.529 119.708 144.54 119.663 144.541 119.618C144.543 119.573 144.535 119.528 144.518 119.485Z" fill="#041B17"/>
<path d="M140.554 117.932C141.038 117.898 142.156 116.79 142.2 116.025C142.243 115.26 138.454 115.773 138.449 116.373C138.444 117.23 140.085 117.966 140.554 117.932Z" fill="#F28F8F"/>
<path d="M103.958 190.996L101.659 181.689H90.0863C86.2569 181.031 82.3433 181.031 78.5139 181.689H66.9463L64.6424 190.996C63.7664 194.462 65.6104 198.111 70.252 200.773C77.996 205.255 90.58 205.255 98.3482 200.773C102.966 198.111 104.834 194.462 103.958 190.996Z" fill="#BA68C8"/>
<path opacity="0.1" d="M103.958 190.996L101.659 181.689H90.0863C86.2569 181.031 82.3433 181.031 78.5139 181.689H66.9463L64.6424 190.996C63.7664 194.462 65.6104 198.111 70.252 200.773C77.996 205.255 90.58 205.255 98.3482 200.773C102.966 198.111 104.834 194.462 103.958 190.996Z" fill="black"/>
<path d="M84.3025 193.242C93.9843 193.242 101.833 188.711 101.833 183.121C101.833 177.532 93.9843 173.001 84.3025 173.001C74.6206 173.001 66.772 177.532 66.772 183.121C66.772 188.711 74.6206 193.242 84.3025 193.242Z" fill="#BA68C8"/>
<path opacity="0.5" d="M84.3025 193.242C93.9843 193.242 101.833 188.711 101.833 183.121C101.833 177.532 93.9843 173.001 84.3025 173.001C74.6206 173.001 66.772 177.532 66.772 183.121C66.772 188.711 74.6206 193.242 84.3025 193.242Z" fill="white"/>
<path opacity="0.7" d="M73.4996 189.016C79.4432 192.317 89.0748 192.317 95.0183 189.016C100.962 185.715 100.957 180.377 95.0183 177.081C89.0796 173.785 79.4432 173.785 73.4996 177.081C67.5561 180.377 67.5561 185.72 73.4996 189.016Z" fill="#BA68C8"/>
<path d="M99.4567 183.46C99.1182 182.954 98.6593 182.539 98.1213 182.254C97.5832 181.968 96.9828 181.821 96.3737 181.824C96.2624 181.824 96.1607 181.824 96.0542 181.824C96.0833 181.697 96.0979 181.567 96.0978 181.437C96.0864 180.901 95.8628 180.392 95.4763 180.021C95.0897 179.65 94.5717 179.447 94.0359 179.457C93.6851 179.457 93.3398 179.545 93.0325 179.715C92.7252 179.884 92.4659 180.129 92.279 180.425C92.0721 179.648 91.6117 178.963 90.9708 178.477C90.3298 177.991 89.5451 177.733 88.741 177.744C87.8809 177.749 87.0487 178.05 86.3839 178.596C86.2838 178.103 86.007 177.664 85.6057 177.361C85.2044 177.058 84.7062 176.912 84.2049 176.951C83.7035 176.99 83.2336 177.21 82.8835 177.571C82.5334 177.932 82.3272 178.408 82.3038 178.911C82.3045 179.041 82.3174 179.17 82.3425 179.298C81.6145 179.054 80.8291 179.04 80.093 179.258C79.3569 179.476 78.7059 179.916 78.2285 180.517C78.0467 180.203 77.7848 179.941 77.4695 179.76C77.1541 179.579 76.7965 179.485 76.4329 179.487C75.9008 179.477 75.3868 179.679 75.0024 180.047C74.6181 180.415 74.3947 180.92 74.3807 181.452C74.376 181.524 74.376 181.597 74.3807 181.669C73.8517 181.399 73.2662 181.258 72.6722 181.258C71.8609 181.248 71.0696 181.51 70.4254 182.004C69.7812 182.497 69.3213 183.192 69.1196 183.978C69.4826 185.817 70.9346 187.608 73.4756 189.016C79.4191 192.317 89.0507 192.317 94.9943 189.016C97.7966 187.477 99.2777 185.483 99.4567 183.46Z" fill="#B16668"/>
<path d="M74.8162 187.429C74.4946 187.12 74.2932 186.708 74.248 186.264C74.2028 185.821 74.3167 185.376 74.5693 185.009C74.8762 184.576 75.3383 184.278 75.8594 184.177C76.3805 184.076 76.9204 184.18 77.3669 184.467C77.6094 184.617 77.815 184.82 77.9684 185.06C78.1217 185.301 78.2189 185.573 78.2526 185.856C78.1073 185.632 77.9159 185.443 77.6911 185.299C77.2663 185.029 76.7537 184.931 76.2592 185.028C75.7647 185.124 75.3261 185.407 75.034 185.817C74.872 186.049 74.7677 186.316 74.7298 186.597C74.6919 186.877 74.7215 187.162 74.8162 187.429Z" fill="#9A4A4D"/>
<path d="M83.8379 187.676C83.9088 187.191 84.1524 186.749 84.5239 186.43C84.8954 186.112 85.3697 185.938 85.8591 185.941C86.3486 185.945 86.8203 186.125 87.1871 186.45C87.554 186.774 87.7912 187.219 87.8551 187.705C87.883 187.988 87.8461 188.274 87.7471 188.54C87.6482 188.807 87.4898 189.047 87.284 189.244C87.3724 188.998 87.4054 188.735 87.3808 188.474C87.3178 187.979 87.0628 187.529 86.6707 187.22C86.2787 186.911 85.781 186.769 85.285 186.824C84.9954 186.848 84.7148 186.937 84.4643 187.085C84.2138 187.232 83.9997 187.434 83.8379 187.676Z" fill="#9A4A4D"/>
<path d="M77.0279 184.922C76.7481 184.656 76.5728 184.299 76.5337 183.916C76.4946 183.532 76.5944 183.147 76.8149 182.831C77.0769 182.452 77.4757 182.19 77.9271 182.1C78.3786 182.01 78.8474 182.098 79.2349 182.347C79.4428 182.477 79.619 182.651 79.7505 182.858C79.882 183.065 79.9655 183.299 79.9948 183.542C79.8712 183.347 79.7059 183.182 79.5108 183.058C79.1455 182.825 78.7048 182.742 78.2796 182.825C77.8544 182.908 77.4774 183.151 77.2263 183.504C77.0796 183.706 76.9848 183.941 76.9502 184.188C76.9156 184.435 76.9423 184.687 77.0279 184.922Z" fill="#9A4A4D"/>
<path d="M87.5745 187.879C87.4349 187.519 87.4278 187.12 87.5545 186.755C87.6813 186.39 87.9337 186.081 88.2666 185.885C88.6581 185.64 89.1299 185.556 89.5817 185.653C90.0335 185.75 90.4298 186.019 90.6866 186.403C90.8159 186.608 90.8967 186.839 90.9227 187.08C90.9487 187.321 90.9193 187.564 90.8367 187.792C90.8024 187.569 90.7198 187.356 90.5947 187.168C90.3505 186.81 89.9778 186.56 89.5542 186.47C89.1306 186.38 88.6886 186.456 88.3199 186.684C88.1115 186.811 87.9357 186.986 87.8064 187.193C87.677 187.401 87.5976 187.636 87.5745 187.879Z" fill="#9A4A4D"/>
<path d="M83.7945 183.213C83.6572 182.852 83.6519 182.454 83.7794 182.089C83.9069 181.724 84.159 181.416 84.4914 181.219C84.8801 180.982 85.3454 180.903 85.7907 180.999C86.2359 181.096 86.6269 181.36 86.8824 181.737C87.0181 181.939 87.1057 182.169 87.1384 182.41C87.1711 182.65 87.1481 182.896 87.0712 183.126C87.0377 182.903 86.9568 182.691 86.834 182.502C86.589 182.145 86.2164 181.896 85.7932 181.806C85.3699 181.716 84.9282 181.792 84.5592 182.018C84.3477 182.144 84.1685 182.318 84.0358 182.525C83.9031 182.733 83.8205 182.968 83.7945 183.213Z" fill="#9A4A4D"/>
<path d="M86.6789 182.086C86.5683 181.797 86.5635 181.478 86.6653 181.186C86.7672 180.893 86.9691 180.646 87.2355 180.489C87.549 180.293 87.9264 180.227 88.2878 180.305C88.6491 180.382 88.966 180.598 89.1715 180.905C89.2796 181.067 89.3494 181.251 89.3754 181.444C89.4014 181.637 89.383 181.833 89.3215 182.018C89.294 181.844 89.2278 181.679 89.1279 181.534C88.9328 181.248 88.6351 181.047 88.2963 180.974C87.9576 180.901 87.6038 180.961 87.3081 181.142C87.1369 181.239 86.9908 181.375 86.8816 181.539C86.7723 181.703 86.7029 181.89 86.6789 182.086Z" fill="#9A4A4D"/>
<path d="M186.754 81.34C183.206 84.8558 178.462 86.8758 173.487 86.9883L171.244 86.9157C166.336 86.4799 161.771 84.1966 158.459 80.5208C155.147 76.8451 153.331 72.0467 153.373 67.082C153.415 62.1173 155.311 57.3507 158.685 53.7321C162.058 50.1135 166.661 47.9086 171.576 47.5568L173.819 47.5181C177.639 47.6743 181.331 48.9532 184.439 51.1974C187.547 53.4415 189.935 56.5529 191.31 60.148C192.685 63.7432 192.986 67.6651 192.177 71.4306C191.367 75.1961 189.482 78.6407 186.754 81.34Z" fill="#FAFAFA"/>
<path d="M187.916 82.5258C184.328 86.0705 179.613 88.2227 174.602 88.6018C169.592 88.9809 164.61 87.5624 160.538 84.5973L154.467 87.2351C154.238 87.3346 153.985 87.3621 153.74 87.3139C153.496 87.2657 153.271 87.144 153.097 86.9649C152.922 86.7858 152.805 86.5576 152.762 86.3104C152.718 86.0632 152.75 85.8085 152.853 85.5798L155.572 79.5104C153.248 76.1596 151.924 72.2091 151.755 68.1249C151.586 64.0406 152.579 59.9928 154.618 56.4588C156.657 52.9247 159.656 50.0518 163.262 48.1787C166.868 46.3056 170.93 45.5105 174.969 45.8871C179.008 46.2636 182.857 47.7962 186.06 50.3041C189.264 52.812 191.689 56.1906 193.05 60.0416C194.41 63.8925 194.65 68.0553 193.741 72.039C192.831 76.0228 190.81 79.6613 187.916 82.5258ZM186.989 53.3841C183.501 49.8078 178.791 47.7065 173.819 47.5084L171.575 47.5471C166.661 47.8989 162.058 50.1038 158.685 53.7224C155.311 57.341 153.414 62.1076 153.373 67.0723C153.331 72.037 155.147 76.8354 158.459 80.5111C161.771 84.1869 166.336 86.4701 171.244 86.906L173.487 86.9786C177.309 86.8873 181.021 85.6714 184.166 83.4807C187.311 81.29 189.751 78.2202 191.186 74.6494C192.622 71.0786 192.989 67.1628 192.243 63.3843C191.497 59.6058 189.671 56.1297 186.989 53.3841Z" fill="#E0E0E0"/>
<path d="M173.007 79.3796C159.179 71.955 158.065 63.9932 162.085 60.097C165.687 56.6122 172.272 58.9112 173.007 63.8964C173.737 58.9112 180.327 56.6122 183.924 60.097C187.945 63.9932 186.83 71.955 173.007 79.3796Z" fill="#BA68C8"/>
</g>
<defs>
<clipPath id="clip0_15013_19142">
<rect width="242" height="242" fill="white"/>
</clipPath>
</defs>
</svg>
