<svg width="541" height="524" viewBox="0 0 541 524" fill="none" xmlns="http://www.w3.org/2000/svg">
<ellipse cx="247.162" cy="258.785" rx="243.162" ry="250.785" fill="url(#paint0_linear_56_8)"/>
<path d="M459.17 113.272C460.946 112.389 461.736 110.251 460.917 108.469C447.847 80.0351 428.534 55.3488 404.594 36.5129C380.807 17.7975 353.174 5.42603 324.012 0.406084C321.899 0.0424049 319.901 1.57672 319.617 3.73597C319.347 5.78745 320.73 7.64571 322.738 7.98979C350.805 12.8006 377.402 24.6973 400.293 42.7076C423.215 60.7425 441.723 84.3587 454.281 111.558C455.134 113.405 457.326 114.189 459.17 113.272Z" fill="url(#paint1_linear_56_8)"/>
<path d="M47.7424 422.379C45.6699 423.377 44.7955 425.913 45.8787 427.908C60.1941 454.284 81.4913 476.67 108.035 493.199C134.866 509.908 166.242 520.124 199.506 523.006C201.489 523.178 203.288 521.741 203.636 519.741C204.026 517.502 202.455 515.454 200.236 515.254C168.585 512.4 138.739 502.622 113.186 486.71C87.6404 470.802 67.157 449.242 53.4154 423.837C52.409 421.976 50.1417 421.224 48.2111 422.154L47.7424 422.379Z" fill="url(#paint2_linear_56_8)"/>
<path d="M3.60225 161.873C1.55254 161.424 0.210103 159.389 0.648434 157.338C6.59945 129.493 18.584 103.434 35.7701 81.0176C52.9587 58.598 74.91 40.3967 100.054 27.6893C101.901 26.7562 104.169 27.5746 105.101 29.4772C106.036 31.3839 105.276 33.6562 103.427 34.5929C79.3225 46.801 58.2778 64.2658 41.7921 85.7684C25.3068 107.271 13.8018 132.261 8.07252 158.965C7.63259 161.015 5.65196 162.322 3.60225 161.873Z" fill="url(#paint3_linear_56_8)"/>
<ellipse cx="481.327" cy="28.8551" rx="23.4053" ry="24.3004" fill="#FFA073"/>
<ellipse cx="516.923" cy="69.0664" rx="8.92344" ry="9.48434" fill="#FFAD86"/>
<ellipse cx="535.985" cy="107.481" rx="4.98493" ry="5.48987" fill="#FFAD86"/>
<defs>
<linearGradient id="paint0_linear_56_8" x1="-472.479" y1="-245.291" x2="496.578" y2="478.888" gradientUnits="userSpaceOnUse">
<stop offset="0.221154" stop-color="#380706"/>
<stop offset="0.759615" stop-color="#D77445"/>
</linearGradient>
<linearGradient id="paint1_linear_56_8" x1="-317.414" y1="-77.045" x2="520.38" y2="308.901" gradientUnits="userSpaceOnUse">
<stop offset="0.221154" stop-color="#380706"/>
<stop offset="0.759615" stop-color="#D77445"/>
</linearGradient>
<linearGradient id="paint2_linear_56_8" x1="933.675" y1="540.778" x2="55.9634" y2="90.9201" gradientUnits="userSpaceOnUse">
<stop offset="0.221154" stop-color="#380706"/>
<stop offset="0.759615" stop-color="#D77445"/>
</linearGradient>
<linearGradient id="paint3_linear_56_8" x1="826.928" y1="-57.5441" x2="-21.481" y2="359.786" gradientUnits="userSpaceOnUse">
<stop offset="0.221154" stop-color="#380706"/>
<stop offset="0.759615" stop-color="#D77445"/>
</linearGradient>
</defs>
</svg>
